<svg width="16" height="17" viewBox="0 0 16 17" fill="none" xmlns="http://www.w3.org/2000/svg">
<g clip-path="url(#clip0_5545_3097)">
<path d="M13.6667 7.16669C13.6667 11.8334 7.66675 15.8334 7.66675 15.8334C7.66675 15.8334 1.66675 11.8334 1.66675 7.16669C1.66675 5.57539 2.29889 4.04926 3.42411 2.92405C4.54933 1.79883 6.07545 1.16669 7.66675 1.16669C9.25805 1.16669 10.7842 1.79883 11.9094 2.92405C13.0346 4.04926 13.6667 5.57539 13.6667 7.16669Z" stroke="#003F57" stroke-width="1.33333" stroke-linecap="round" stroke-linejoin="round"/>
<path d="M7.66675 9.16669C8.77132 9.16669 9.66675 8.27126 9.66675 7.16669C9.66675 6.06212 8.77132 5.16669 7.66675 5.16669C6.56218 5.16669 5.66675 6.06212 5.66675 7.16669C5.66675 8.27126 6.56218 9.16669 7.66675 9.16669Z" stroke="#003F57" stroke-width="1.33333" stroke-linecap="round" stroke-linejoin="round"/>
</g>
<defs>
<clipPath id="clip0_5545_3097">
<rect width="16" height="16" fill="white" transform="translate(0 0.5)"/>
</clipPath>
</defs>
</svg>
