<svg width="140" height="71" viewBox="0 0 140 71" fill="none" xmlns="http://www.w3.org/2000/svg">
<g clip-path="url(#clip0_5545_3013)">
<path d="M28.3276 48.0179C28.3276 48.0179 21.112 23.3328 38.4469 20.6928C55.7721 18.0529 96.6669 11.5845 103.154 26.2358C109.641 40.8871 101.134 65.7183 88.0917 69.8779C75.0493 74.0376 34.6497 65.2994 28.3373 48.0276" fill="#F49AC1"/>
<path d="M15.0821 54.2038C15.0821 46.2936 27.9497 41.5982 25.8132 37.3801C24.3274 34.4674 16.9855 38.4517 15.2666 36.1917C13.7225 34.1654 16.4514 27.1515 29.1345 27.1515C35.8937 27.1515 41.2252 30.5416 41.2252 36.1917C41.2252 44.2771 31.2613 46.1183 32.4558 49.7519C33.3881 52.6451 49.3926 46.128 57.3656 47.7549C60.0363 48.3004 61.2114 49.2453 61.8135 50.3461C63.2314 52.9471 64.2413 55.626 61.3085 57.2626C56.9481 59.6883 35.2818 62.1237 28.4838 62.1237C19.8892 62.1237 15.0918 59.6883 15.0918 54.2135" fill="#003F57"/>
<path d="M58.4913 32.938C58.4913 29.6258 57.996 27.9795 54.3445 27.9795C51.1106 27.9795 50.1686 29.47 50.1686 32.938C50.1686 37.0197 51.5768 37.9354 54.3445 37.9354C56.9666 37.9354 58.4913 37.0197 58.4913 32.938ZM42.7588 34.8863C42.7588 27.3366 45.6819 23.6445 52.8295 23.6445C60.958 23.6445 63.0557 27.6873 63.0557 34.8863C63.0557 43.7316 59.0254 46.167 53.0238 46.167C47.0221 46.167 42.7588 43.7316 42.7588 34.8863Z" fill="#003F57"/>
<path d="M65.4548 41.8612C65.4548 35.5098 75.7877 31.73 74.0785 28.34C72.884 26.002 66.9795 29.1972 65.6004 27.3853C64.3574 25.7585 66.5522 20.1181 76.7492 20.1181C82.1779 20.1181 86.4703 22.8457 86.4703 27.3853C86.4703 33.8829 78.4681 35.3636 79.4198 38.2764C80.4201 41.3839 87.1404 39.5233 87.1404 43.5368C87.1404 46.8294 82.1876 48.2225 76.2345 48.2225C69.3296 48.2225 65.4645 46.2644 65.4645 41.871" fill="#003F57"/>
<path d="M72.6801 53.3564C75.5061 46.8393 92.7536 53.4538 97.2694 53.4538C100.571 53.4538 102.271 52.9667 102.271 50.1417C102.271 44.3259 90.753 43.8389 88.1698 41.0041C85.674 38.3349 88.2475 30.0935 89.7819 27.0249C92.0349 22.4951 94.6182 20.878 104.203 21.6086C114.109 22.3393 120.723 24.1122 120.723 27.8335C120.723 33.5713 105.815 29.3727 105.815 34.1363C105.815 39.387 121.927 35.9969 121.927 52.8108C121.927 61.1301 115.478 69.1377 102.989 69.1377C88.4903 69.1377 69.0868 64.8514 72.6801 53.3564Z" fill="#003F57"/>
<path d="M16.7412 43.6635C14.4979 47.4529 13.2063 49.0505 10.7881 51.0281C9.96265 51.71 8.44767 52.7426 7.43768 53.1128C6.35971 53.5122 5.11665 53.4927 4.10666 52.9374C3.10638 52.3821 1.94101 50.9696 2.70821 49.3623C2.88302 48.9823 3.78618 48.0082 6.55394 47.4627C13.08 46.1768 16.7412 43.6635 16.7412 43.6635Z" fill="#003F57"/>
<path d="M15.5967 41.871C11.3431 42.962 9.30366 43.1666 6.196 42.8549C5.12774 42.7477 3.33113 42.4067 2.35998 41.9489C1.32086 41.4618 0.446832 40.5656 0.126355 39.4648C-0.194123 38.364 -0.0193169 36.5423 1.65105 35.9384C2.03951 35.802 3.36997 35.7435 5.71043 37.3217C11.2265 41.0429 15.5967 41.8612 15.5967 41.8612" fill="#003F57"/>
<path d="M116.673 35.1981C121.733 34.9838 124.093 35.2371 127.53 36.3281C128.715 36.708 130.658 37.5166 131.648 38.2667C132.707 39.0557 133.484 40.2832 133.581 41.608C133.678 42.9329 133.056 44.9494 131.017 45.2221C130.541 45.2903 129.036 45.0371 126.763 42.6893C121.412 37.1659 116.673 35.1981 116.673 35.1981Z" fill="#003F57"/>
<path d="M12.2454 15.676C12.2357 15.7345 12.2066 15.7734 12.1483 15.8124L9.05037 17.8191C9.00182 17.8484 8.99211 17.8971 9.02124 17.9458L10.5362 20.3032C10.5654 20.3519 10.6042 20.3617 10.6625 20.3325L12.43 19.183C12.4785 19.1537 12.5368 19.144 12.5853 19.1537C12.6436 19.1635 12.6824 19.1927 12.7213 19.2512L13.6536 20.7026C13.6827 20.7514 13.6924 20.8098 13.6827 20.8682C13.673 20.9267 13.6439 20.9657 13.5856 21.0046L11.8181 22.1541C11.7696 22.1834 11.7599 22.2321 11.789 22.2808L14.4111 26.3527C14.4402 26.4015 14.4499 26.4599 14.4402 26.5086C14.4305 26.5671 14.4014 26.6158 14.3431 26.645L12.6048 27.775C12.5562 27.8042 12.4979 27.814 12.4494 27.8042C12.3911 27.7945 12.3523 27.7653 12.3134 27.7068L5.81647 17.6146C5.78733 17.5659 5.77762 17.5074 5.78733 17.4587C5.79704 17.4003 5.82618 17.3613 5.88445 17.3223L10.9732 14.0199C11.0218 13.9907 11.0801 13.981 11.1383 13.9907C11.1966 14.0005 11.2354 14.0297 11.2743 14.0881L12.2066 15.5396C12.2357 15.5883 12.2454 15.6468 12.2357 15.6955" fill="#003F57"/>
<path d="M16.819 13.5328L18.1106 16.2799C18.1398 16.3384 18.1786 16.3481 18.2272 16.3189L18.9458 15.9779C19.276 15.8221 19.4897 15.559 19.5674 15.1986C19.6548 14.8382 19.5965 14.4388 19.3828 14.0004C19.1692 13.5523 18.8973 13.2406 18.5671 13.075C18.2369 12.9093 17.9067 12.9093 17.5765 13.0652L16.8579 13.4062C16.7996 13.4354 16.7899 13.4744 16.819 13.5231M23.0149 21.6962L19.7033 17.8386C19.7033 17.8386 19.6256 17.7996 19.5965 17.8093L19.0526 18.0626C18.9944 18.0919 18.9847 18.1308 19.0138 18.1795L21.0726 22.573C21.1018 22.6217 21.1018 22.6801 21.0726 22.7386C21.0532 22.797 21.0144 22.836 20.9658 22.8555L19.0915 23.742C19.0429 23.7712 18.9847 23.7712 18.9264 23.742C18.8681 23.7225 18.8293 23.6835 18.8099 23.6348L13.7211 12.7535C13.6919 12.7048 13.6919 12.6463 13.7211 12.5879C13.7405 12.5294 13.7793 12.4905 13.8279 12.471L17.0715 10.9416C17.6639 10.6688 18.2466 10.5616 18.839 10.6298C19.4314 10.698 19.9752 10.9318 20.4705 11.3312C20.9658 11.7306 21.364 12.2567 21.6747 12.9191C21.9758 13.5523 22.1117 14.166 22.102 14.7602C22.0826 15.3545 21.9272 15.8903 21.6262 16.3579C21.6068 16.3773 21.597 16.3968 21.597 16.4163C21.597 16.4358 21.597 16.4553 21.6262 16.4748L25.3262 20.5272L25.3748 20.5857C25.4233 20.6928 25.3942 20.7708 25.2777 20.8292L23.3548 21.7352C23.2383 21.7936 23.1412 21.7742 23.0538 21.6767" fill="#003F57"/>
<path d="M26.8134 20.2351C26.7648 20.2058 26.726 20.1669 26.7065 20.1182L22.5209 8.85692C22.5015 8.79847 22.5015 8.74976 22.5209 8.69131C22.5403 8.64261 22.5889 8.60364 22.6375 8.58416L24.5797 7.85354C24.638 7.83406 24.6866 7.83406 24.7448 7.85354C24.7934 7.88277 24.8322 7.92173 24.8517 7.97044L29.0373 19.2317C29.0567 19.2901 29.0567 19.3388 29.0373 19.3973C29.0082 19.446 28.9693 19.485 28.9207 19.5044L26.9785 20.2351C26.9202 20.2545 26.8716 20.2545 26.8134 20.2351Z" fill="#003F57"/>
<path d="M30.9602 18.6958C30.9117 18.6666 30.8728 18.6276 30.8534 18.5692L27.4059 7.06443C27.3864 7.00598 27.3961 6.95727 27.4253 6.89882C27.4544 6.85011 27.4933 6.81115 27.5515 6.79166L29.5327 6.18769C29.5909 6.1682 29.6395 6.17795 29.6978 6.20717C29.7463 6.2364 29.7852 6.27536 29.8046 6.33381L32.6695 15.9C32.6889 15.9585 32.7277 15.9779 32.7763 15.9585L36.3404 14.8869C36.3986 14.8674 36.4472 14.8772 36.5055 14.9064C36.554 14.9356 36.5929 14.9746 36.6123 15.033L37.1076 16.6793C37.127 16.7378 37.1173 16.7865 37.0882 16.8449C37.059 16.8937 37.0202 16.9326 36.9619 16.9521L31.1253 18.7153C31.0671 18.7348 31.0185 18.7251 30.9602 18.6958Z" fill="#003F57"/>
<path d="M39.1656 15.52C38.3887 15.0037 37.8837 14.2049 37.6507 13.1139L35.7763 4.62897C35.7666 4.57053 35.7763 4.52182 35.8055 4.47311C35.8346 4.4244 35.8832 4.39518 35.9414 4.37569L37.9614 3.92758C38.0197 3.91784 38.0682 3.92758 38.1168 3.95681C38.1654 3.98603 38.1945 4.03474 38.2139 4.09319L40.1368 12.8216C40.2145 13.1918 40.3796 13.4743 40.6126 13.6594C40.8457 13.8542 41.1176 13.9127 41.4187 13.8445C41.7197 13.7763 41.9334 13.6107 42.0596 13.3379C42.1859 13.0652 42.215 12.7437 42.1276 12.3735L40.2048 3.64508C40.195 3.58663 40.2048 3.53792 40.2339 3.48921C40.263 3.44051 40.3116 3.41128 40.3699 3.3918L42.3898 2.94369C42.4481 2.93394 42.4967 2.94369 42.5549 2.97291C42.6035 3.00214 42.6326 3.05084 42.652 3.10929L44.5263 11.5942C44.7691 12.6852 44.6429 13.6204 44.1573 14.4192C43.6717 15.2083 42.9142 15.7246 41.8945 15.9487C40.8554 16.1825 39.9523 16.0363 39.1753 15.52" fill="#003F57"/>
<path d="M51.7518 3.52824C51.7518 3.52824 51.6741 3.60617 51.6158 3.61591L47.974 4.18092C47.9157 4.18092 47.8866 4.21989 47.8963 4.27834L48.3236 7.05468C48.3236 7.11313 48.3625 7.14236 48.4207 7.13261L50.5087 6.81114C50.567 6.81114 50.6155 6.81114 50.6641 6.85011C50.7126 6.88908 50.7418 6.92804 50.7515 6.98649L51.0137 8.69126C51.0137 8.74971 51.0137 8.80816 50.9748 8.84713C50.936 8.89584 50.8971 8.92506 50.8389 8.9348L48.7509 9.25627C48.6926 9.25627 48.6635 9.29524 48.6732 9.35369L49.4113 14.1465C49.4113 14.205 49.4113 14.2634 49.3724 14.3024C49.3336 14.3511 49.2948 14.3803 49.2365 14.3901L47.1874 14.7115C47.1291 14.7115 47.0806 14.7115 47.032 14.6726C46.9834 14.6336 46.9543 14.5946 46.9446 14.5362L45.1091 2.66124C45.1091 2.60279 45.1091 2.55408 45.148 2.50538C45.1868 2.45667 45.2257 2.42744 45.2839 2.4177L51.2759 1.48251C51.3342 1.48251 51.3827 1.48251 51.4313 1.52148C51.4798 1.56045 51.509 1.59941 51.5187 1.65786L51.7809 3.36263C51.7809 3.42108 51.7809 3.46979 51.742 3.5185" fill="#003F57"/>
<path d="M60.5408 0.596041C60.5408 0.596041 60.6088 0.683714 60.6185 0.742164L60.7836 2.45668C60.7836 2.51513 60.7739 2.56383 60.735 2.61254C60.6962 2.66125 60.6476 2.68073 60.5894 2.69047L58.3849 2.90479C58.3266 2.90479 58.2975 2.94375 58.3072 3.0022L59.2589 12.9483C59.2589 13.0068 59.2492 13.0555 59.2104 13.1042C59.1715 13.1529 59.1229 13.1724 59.0647 13.1821L56.9961 13.377C56.9379 13.377 56.8893 13.3672 56.8408 13.3282C56.7922 13.2893 56.7728 13.2406 56.7631 13.1821L55.8114 3.236C55.8114 3.17755 55.7725 3.14833 55.7142 3.15807L53.5971 3.36264C53.5389 3.36264 53.4903 3.36264 53.4418 3.31393C53.3932 3.27497 53.3738 3.22626 53.3641 3.16781L53.199 1.4533C53.199 1.39485 53.199 1.34614 53.2475 1.29743C53.2864 1.24872 53.3349 1.22924 53.3932 1.2195L60.3757 0.547333C60.434 0.547333 60.4826 0.557074 60.5311 0.596041" fill="#003F57"/>
<path d="M64.7166 12.5001C64.1824 12.2469 63.7746 11.8864 63.4638 11.3993C63.1627 10.922 62.9976 10.357 62.9685 9.7238L62.9491 9.2075C62.9491 9.14905 62.9685 9.10034 63.0074 9.05163C63.0462 9.01266 63.0948 8.98344 63.153 8.98344L65.1924 8.90551C65.2507 8.90551 65.2993 8.92499 65.3478 8.96396C65.3867 9.00292 65.4158 9.05163 65.4158 9.11008L65.4352 9.49974C65.4449 9.86992 65.5517 10.1622 65.7557 10.3765C65.9499 10.5908 66.1927 10.698 66.4743 10.6882C66.756 10.6785 66.989 10.5616 67.1736 10.3375C67.3581 10.1135 67.4358 9.83095 67.4261 9.49C67.4163 9.12956 67.2804 8.83732 67.0376 8.59378C66.7948 8.35024 66.319 7.9898 65.61 7.52221C64.9982 7.1228 64.5126 6.76236 64.1339 6.44089C63.7551 6.11942 63.4249 5.72976 63.1433 5.25242C62.8617 4.77509 62.716 4.21982 62.6869 3.57688C62.648 2.5735 62.9297 1.75521 63.5318 1.12201C64.1339 0.488805 64.9496 0.157593 65.9693 0.118626C67.0085 0.0796601 67.8534 0.362165 68.5137 0.9564C69.1741 1.56038 69.514 2.36892 69.5626 3.38205L69.582 3.81067C69.582 3.86912 69.5626 3.91783 69.5237 3.96654C69.4849 4.00551 69.4363 4.03473 69.3781 4.03473L67.3387 4.11266C67.2804 4.11266 67.2318 4.09318 67.1833 4.05421C67.1444 4.01525 67.1153 3.96654 67.1153 3.90809L67.0959 3.43075C67.0764 3.06058 66.9793 2.77807 66.7851 2.56376C66.5909 2.34944 66.3481 2.25203 66.0567 2.26177C65.7751 2.27151 65.5518 2.38841 65.3769 2.60272C65.2119 2.81704 65.1342 3.10928 65.1439 3.47946C65.1536 3.83016 65.2798 4.14189 65.5226 4.40491C65.7557 4.66793 66.2121 5.02837 66.8919 5.48622C67.6494 6.00252 68.2127 6.42141 68.6011 6.74288C68.9896 7.06435 69.2907 7.42479 69.514 7.82419C69.7374 8.2236 69.8636 8.71068 69.883 9.27569C69.9219 10.318 69.6403 11.1558 69.0284 11.7987C68.4166 12.4417 67.5912 12.7826 66.552 12.8216C65.8625 12.8508 65.2604 12.7339 64.7263 12.4807" fill="#003F57"/>
<path d="M71.6501 12.4904C71.6501 12.4904 71.5918 12.4027 71.5918 12.3346L71.7278 0.323225C71.7278 0.264776 71.7472 0.216068 71.7957 0.177102C71.8346 0.138135 71.8928 0.118652 71.9511 0.118652L74.0197 0.138135C74.0779 0.138135 74.1265 0.157619 74.1653 0.206326C74.2042 0.245293 74.2236 0.303742 74.2236 0.362191L74.1071 10.3473C74.1071 10.4057 74.1362 10.435 74.1945 10.435L77.9139 10.4739C77.9722 10.4739 78.0208 10.4934 78.0596 10.5421C78.0985 10.5811 78.1179 10.6298 78.1179 10.698L78.0985 12.4222C78.0985 12.4807 78.079 12.5294 78.0305 12.5684C77.9916 12.6073 77.9431 12.6268 77.8751 12.6268L71.7763 12.5586C71.718 12.5586 71.6695 12.5391 71.6306 12.4904" fill="#003F57"/>
<path d="M79.6132 12.6562C79.6132 12.6562 79.5549 12.5588 79.5549 12.5003L80.1668 0.498732C80.1668 0.440282 80.1959 0.391574 80.2347 0.352608C80.2736 0.313642 80.3318 0.294159 80.3901 0.294159L82.4587 0.401316C82.5169 0.401316 82.5655 0.430541 82.6043 0.469507C82.6432 0.508473 82.6626 0.566922 82.6626 0.625372L82.0508 12.627C82.0508 12.6854 82.0216 12.7341 81.9828 12.7731C81.9439 12.8121 81.8857 12.8315 81.8274 12.8315L79.7589 12.7244C79.7006 12.7244 79.6521 12.6952 79.6132 12.6562Z" fill="#003F57"/>
<path d="M86.1884 12.9483L84.8191 0.742102V0.673911C84.8191 0.566754 84.8871 0.518046 85.0133 0.537529L87.2858 0.761585C87.4315 0.771326 87.4994 0.849259 87.4994 0.975899L87.9656 8.8763C87.9656 8.8763 87.985 8.95423 88.0142 8.95423C88.0336 8.95423 88.053 8.93475 88.0724 8.88604L90.005 1.21944C90.0341 1.0928 90.1118 1.03435 90.2575 1.04409L92.462 1.2584C92.6174 1.27789 92.6659 1.35582 92.6174 1.50194L88.9173 13.2113C88.8785 13.3379 88.8008 13.3964 88.6648 13.3866L86.3923 13.1626C86.2661 13.1528 86.1981 13.0749 86.1787 12.9483" fill="#003F57"/>
<path d="M100.96 4.66802C100.96 4.66802 100.863 4.71673 100.805 4.70699L97.1434 4.1225C97.0851 4.1225 97.056 4.14198 97.0463 4.20043L96.6092 6.97677C96.6092 7.03522 96.6287 7.06445 96.6869 7.07419L98.7846 7.4054C98.8429 7.4054 98.8914 7.44437 98.9206 7.49307C98.9594 7.54178 98.9691 7.59049 98.9594 7.64894L98.6875 9.35371C98.6875 9.41216 98.6486 9.46087 98.6001 9.49009C98.5515 9.52906 98.503 9.5388 98.4447 9.52906L96.347 9.19784C96.2888 9.19784 96.2596 9.21733 96.2499 9.27578L95.8032 12.0716C95.8032 12.1301 95.8226 12.1593 95.8809 12.169L99.5421 12.7535C99.6004 12.7535 99.6489 12.7925 99.678 12.8412C99.7169 12.8899 99.7266 12.9386 99.7169 12.9971L99.445 14.7018C99.445 14.7603 99.4061 14.809 99.3576 14.8382C99.309 14.8772 99.2605 14.8869 99.2022 14.8772L93.2005 13.9225C93.1423 13.9225 93.0937 13.8835 93.0646 13.8348C93.0257 13.7861 93.016 13.7374 93.0257 13.679L94.9097 1.81375C94.9097 1.7553 94.9486 1.70659 94.9971 1.67737C95.0457 1.6384 95.0943 1.62866 95.1525 1.6384L101.154 2.59307C101.212 2.59307 101.261 2.63204 101.29 2.68075C101.329 2.72946 101.339 2.77816 101.329 2.83661L101.057 4.54138C101.057 4.59983 101.018 4.64854 100.97 4.67777" fill="#003F57"/>
<path d="M110.545 4.69721C110.574 4.74591 110.584 4.80436 110.574 4.85307L110.196 6.53836C110.186 6.59681 110.147 6.64552 110.098 6.67474C110.05 6.70397 109.992 6.71371 109.943 6.70397L107.787 6.20715C107.729 6.1974 107.69 6.20715 107.68 6.27534L105.466 16.0169C105.456 16.0753 105.418 16.124 105.369 16.1533C105.32 16.1825 105.262 16.1922 105.204 16.1825L103.184 15.7246C103.126 15.7149 103.077 15.6759 103.048 15.6272C103.019 15.5785 103.009 15.5201 103.019 15.4616L105.233 5.72007C105.243 5.66162 105.233 5.62265 105.165 5.61291L103.096 5.13558C103.038 5.12583 102.99 5.08687 102.961 5.03816C102.931 4.98945 102.922 4.931 102.931 4.87255L103.31 3.18726C103.32 3.12882 103.359 3.08011 103.407 3.05088C103.456 3.02166 103.514 3.01192 103.572 3.02166L110.419 4.59005C110.477 4.59979 110.526 4.63876 110.555 4.68746" fill="#003F57"/>
<path d="M110.71 17.3417C110.292 16.9228 110.02 16.4455 109.894 15.8902C109.768 15.335 109.797 14.7505 109.991 14.1465L110.146 13.6497C110.166 13.5912 110.195 13.5523 110.253 13.523C110.302 13.4938 110.36 13.4938 110.418 13.5133L112.361 14.1173C112.419 14.1368 112.458 14.166 112.487 14.2244C112.516 14.2731 112.516 14.3316 112.497 14.39L112.38 14.7602C112.273 15.1109 112.273 15.4226 112.38 15.6954C112.497 15.9682 112.691 16.1435 112.953 16.2312C113.225 16.3189 113.477 16.2799 113.72 16.1338C113.963 15.9876 114.138 15.7441 114.235 15.4226C114.342 15.0817 114.313 14.7602 114.167 14.4387C114.012 14.127 113.691 13.6302 113.176 12.9483C112.739 12.3638 112.39 11.8572 112.137 11.4383C111.885 11.0097 111.71 10.5324 111.603 9.98685C111.496 9.44132 111.545 8.86657 111.729 8.26259C112.03 7.29818 112.565 6.62601 113.341 6.23635C114.118 5.84669 115.002 5.80772 115.983 6.10971C116.974 6.42144 117.682 6.96697 118.1 7.75603C118.518 8.5451 118.576 9.42184 118.275 10.396L118.149 10.8051C118.129 10.8636 118.1 10.9026 118.042 10.9318C117.993 10.961 117.935 10.961 117.877 10.9513L115.934 10.3473C115.876 10.3278 115.837 10.2986 115.808 10.2401C115.779 10.1914 115.779 10.133 115.789 10.0745L115.934 9.61667C116.041 9.26597 116.041 8.95424 115.934 8.69122C115.828 8.4282 115.624 8.25285 115.342 8.16518C115.07 8.0775 114.818 8.10673 114.594 8.25285C114.361 8.39898 114.196 8.64251 114.089 8.99321C113.982 9.33416 114.002 9.66538 114.128 9.99659C114.264 10.3278 114.575 10.8149 115.06 11.4773C115.595 12.2177 115.993 12.8022 116.255 13.2308C116.507 13.6594 116.672 14.1075 116.75 14.5556C116.828 15.0037 116.779 15.5103 116.614 16.0461C116.303 17.0397 115.76 17.7411 114.963 18.1405C114.167 18.5399 113.283 18.5886 112.283 18.2769C111.632 18.0723 111.098 17.7606 110.681 17.3515" fill="#003F57"/>
<path d="M130.87 9.49983C131.103 9.42189 131.278 9.27577 131.385 9.05172C131.502 8.81792 131.511 8.58412 131.424 8.35032C131.337 8.11653 131.191 7.95092 130.977 7.84376C130.764 7.73661 130.54 7.72686 130.317 7.8048C130.084 7.88273 129.919 8.03859 129.802 8.27239C129.695 8.49645 129.676 8.7205 129.763 8.9543C129.841 9.1881 129.987 9.3537 130.2 9.45112C130.414 9.55828 130.637 9.56802 130.87 9.49008M128.511 9.39267C128.316 8.82766 128.355 8.26265 128.627 7.69764C128.899 7.13263 129.317 6.75271 129.88 6.55788C130.443 6.36305 130.997 6.40201 131.55 6.66503C132.104 6.9378 132.482 7.34694 132.677 7.91195C132.881 8.47696 132.842 9.04197 132.57 9.60698C132.298 10.1623 131.88 10.5422 131.317 10.737C130.744 10.9318 130.191 10.9026 129.637 10.6298C129.083 10.3571 128.705 9.94794 128.511 9.38293M124.791 18.7153L126.228 19.4167C126.277 19.446 126.316 19.4167 126.335 19.368L127.695 14.6336C127.695 14.6336 127.695 14.5752 127.666 14.5654C127.646 14.5557 127.617 14.5654 127.598 14.5947L124.772 18.6179C124.742 18.6764 124.752 18.7056 124.801 18.7251M125.257 23.0893L125.743 21.4332C125.772 21.3845 125.743 21.3358 125.684 21.3066L123.655 20.3227C123.587 20.2935 123.548 20.3032 123.519 20.3519L122.519 21.7644C122.451 21.8813 122.353 21.9008 122.227 21.8424L120.363 20.9364C120.227 20.8682 120.207 20.7708 120.304 20.6539L127.87 10.9805C127.947 10.8734 128.044 10.8539 128.161 10.9026L130.317 11.945C130.433 12.0034 130.472 12.0911 130.443 12.2177L127.549 24.1609L127.53 24.2291C127.481 24.3265 127.403 24.346 127.287 24.2875L125.374 23.3621C125.247 23.3036 125.209 23.2062 125.247 23.0893" fill="#003F57"/>
<path d="M136.251 17.9653L134.532 20.4688C134.493 20.5175 134.503 20.5565 134.552 20.5955L135.212 21.0533C135.513 21.2579 135.843 21.3164 136.193 21.2092C136.543 21.102 136.863 20.8488 137.135 20.4494C137.417 20.0402 137.543 19.6506 137.523 19.2804C137.494 18.9102 137.339 18.6179 137.038 18.4134L136.378 17.9555C136.329 17.9263 136.29 17.9263 136.251 17.975M132.338 27.4438L133.989 22.6315C133.989 22.5828 133.989 22.5438 133.959 22.5243L133.464 22.1834C133.416 22.1541 133.377 22.1541 133.338 22.2028L130.59 26.1969C130.59 26.1969 130.512 26.2748 130.454 26.2845C130.395 26.2943 130.347 26.2845 130.298 26.2456L128.589 25.0669C128.54 25.0279 128.511 24.9889 128.502 24.9305C128.492 24.872 128.502 24.8233 128.54 24.7746L135.338 14.8869C135.338 14.8869 135.416 14.809 135.474 14.7993C135.533 14.7895 135.581 14.7993 135.63 14.8382L138.572 16.8742C139.106 17.2444 139.495 17.7022 139.738 18.2478C139.98 18.7933 140.048 19.3875 139.961 20.011C139.864 20.6344 139.611 21.2579 139.194 21.8619C138.796 22.4366 138.339 22.8653 137.815 23.1575C137.29 23.44 136.756 23.5764 136.203 23.5472C136.174 23.5472 136.154 23.5472 136.135 23.5472C136.115 23.5472 136.106 23.5764 136.096 23.5959L134.464 28.8368L134.435 28.905C134.367 29.0024 134.28 29.0122 134.173 28.944L132.425 27.736C132.318 27.6581 132.279 27.5704 132.318 27.4438" fill="#003F57"/>
</g>
<defs>
<clipPath id="clip0_5545_3013">
<rect width="140" height="70.7821" fill="white" transform="translate(0 0.108948)"/>
</clipPath>
</defs>
</svg>
